PathFileType	4	(X/Y/Z)	SUBJ32_0_static_RCNL2025.trc
DataRate	CameraRate	NumFrames	NumMarkers	Units	OrigDataRate	OrigDataStartFrame	OrigNumFrames
100	100	6	25	mm	100	29	114
Frame#	Time	R_Shoulder			L_Shoulder			C7			J_Notch			R_Elbow			L_Elbow			R_Wrist			L_Wrist			R_Asis			L_Asis			Sacral			Thoracic			Sternum			R_Thigh_Lateral			R_Knee_Lateral			R_Shank_Lateral			R_Ankle_Lateral			R_Heel			R_Toe			L_Thigh_Lateral			L_Knee_Lateral			L_Shank_Lateral			L_Ankle_Lateral			L_Heel			L_Toe		
		X1	Y1	Z1	X2	Y2	Z2	X3	Y3	Z3	X4	Y4	Z4	X5	Y5	Z5	X6	Y6	Z6	X7	Y7	Z7	X8	Y8	Z8	X9	Y9	Z9	X10	Y10	Z10	X11	Y11	Z11	X12	Y12	Z12	X13	Y13	Z13	X14	Y14	Z14	X15	Y15	Z15	X16	Y16	Z16	X17	Y17	Z17	X18	Y18	Z18	X19	Y19	Z19	X20	Y20	Z20	X21	Y21	Z21	X22	Y22	Z22	X23	Y23	Z23	X24	Y24	Z24	X25	Y25	Z25
29	0.28000000	-239.212082	1370.245972	-54.267628	-266.571136	1367.095703	-424.967590	-290.465851	1439.333008	-227.946060	-153.793045	1355.729492	-243.236618	-270.442352	1038.941528	55.144447	-302.394348	1052.542358	-530.308777	-203.157158	801.235931	75.619888	-234.301498	807.610931	-578.287048	-150.414917	913.600647	-122.861168	-158.252167	906.047302	-375.229614	-350.724152	954.223572	-239.641388	-364.212097	1204.876953	-232.699753	-67.539894	1131.987183	-247.175186	-269.293823	554.725769	-41.592888	-273.671814	456.080536	-84.263954	-302.994202	300.932373	-11.208587	-311.731018	68.658455	-114.571220	-357.366150	57.235428	-171.433990	-177.915756	50.014408	-132.095978	-265.574066	568.205994	-468.908783	-271.697052	473.480072	-424.019714	-310.193054	255.287262	-460.262817	-324.044037	62.124855	-379.482788	-364.484863	51.615913	-325.413605	-184.987762	40.653023	-380.034393
30	0.29000000	-239.388809	1370.296631	-54.344555	-266.649872	1367.175415	-425.030823	-290.735046	1439.241089	-228.013611	-153.975784	1355.823486	-243.198624	-270.430542	1038.948608	55.120438	-302.400208	1052.609985	-530.479370	-203.095718	801.345123	75.660690	-234.300636	807.681610	-578.401489	-150.474243	913.625488	-122.831200	-158.283997	906.058838	-375.234253	-350.789246	954.164978	-239.712418	-364.418182	1204.903809	-232.787033	-67.615486	1132.116821	-247.229263	-269.302734	554.650391	-41.588352	-273.747467	456.119476	-84.303947	-302.985138	300.920990	-11.224682	-311.683838	68.590149	-114.574005	-357.378540	57.264973	-171.429291	-177.910370	50.004528	-132.084198	-265.518890	568.186768	-468.917297	-271.764648	473.523773	-424.087250	-310.183258	255.270432	-460.256348	-324.017578	62.106087	-379.536438	-364.533661	51.649033	-325.375427	-184.977982	40.647491	-380.091675
31	0.30000000	-239.557877	1370.321289	-54.407780	-266.739655	1367.276001	-425.116669	-291.033264	1439.192871	-228.028748	-154.202927	1355.901245	-243.296661	-270.618347	1039.030273	55.149529	-302.442200	1052.645508	-530.587646	-202.818214	801.509308	75.780899	-234.344933	807.657928	-578.468445	-150.341064	913.634460	-122.729980	-158.361588	906.086121	-375.309814	-350.856293	954.173767	-239.775269	-364.467987	1204.933716	-232.879868	-67.670364	1132.277100	-247.332672	-269.378815	554.561279	-41.662655	-273.728271	456.119415	-84.348694	-302.980194	300.919220	-11.235620	-311.711548	68.543869	-114.586578	-357.447388	57.187077	-171.385742	-177.842590	49.967846	-132.044113	-265.530457	568.168701	-468.943573	-271.678314	473.549713	-424.171875	-310.175232	255.277039	-460.277710	-324.017548	62.113480	-379.523560	-364.481995	51.618134	-325.446442	-184.934219	40.613697	-380.055084
32	0.31000000	-239.738922	1370.324829	-54.498940	-266.836304	1367.327881	-425.145325	-291.258270	1439.143799	-228.101212	-154.309692	1355.986206	-243.284119	-270.669037	1039.146362	55.165615	-302.454681	1052.699463	-530.734436	-202.636391	801.670227	75.821003	-234.320953	807.715179	-578.558533	-150.238556	913.786804	-122.793266	-158.526230	906.102417	-375.329773	-351.001099	954.200623	-239.818207	-364.667694	1204.816772	-232.982925	-67.780357	1132.282593	-247.378387	-269.389282	554.656677	-41.686527	-273.776245	455.998627	-84.345184	-302.978546	300.898834	-11.218760	-311.738861	68.555832	-114.566574	-357.451874	57.181694	-171.381607	-177.948517	49.937855	-132.064392	-265.598846	568.149658	-468.977539	-271.716644	473.505737	-424.057861	-310.173279	255.242310	-460.347870	-324.028351	62.103855	-379.508972	-364.480865	51.604877	-325.417633	-184.925568	40.632416	-380.046753
33	0.32000000	-240.012238	1370.385132	-54.558361	-266.995178	1367.400024	-425.233826	-291.547668	1439.102661	-228.124542	-154.387146	1356.068481	-243.380447	-270.627747	1039.150513	55.141144	-302.545776	1052.761719	-530.802917	-202.583290	801.694763	75.835924	-234.303604	807.786926	-578.594788	-150.235474	913.850525	-122.821762	-158.427032	906.078430	-375.500000	-351.030029	954.152161	-239.951447	-364.801239	1204.799561	-233.049683	-67.867966	1132.419434	-247.442505	-269.505798	554.665955	-41.711987	-273.883148	456.015564	-84.372520	-302.960205	300.937714	-11.217731	-311.750885	68.580894	-114.550850	-357.450714	57.176067	-171.382034	-177.910278	49.989407	-132.094345	-265.629150	568.116333	-469.040955	-271.844208	473.484161	-424.197235	-310.141388	255.205276	-460.377228	-324.031555	62.109779	-379.528992	-364.477203	51.566189	-325.461578	-185.015594	40.602295	-380.055725
34	0.33000000	-240.193604	1370.394287	-54.661243	-267.195679	1367.507446	-425.267242	-291.713593	1439.087891	-228.150848	-154.684418	1356.161011	-243.463699	-270.614655	1039.132568	55.129387	-302.580902	1052.832520	-530.892395	-202.593498	801.736725	75.823059	-234.322205	807.841675	-578.708954	-150.507874	913.651245	-122.814194	-158.464920	906.138794	-375.597107	-351.085388	954.159302	-240.025909	-364.919983	1204.864868	-233.162338	-67.933411	1132.580444	-247.496140	-269.575256	554.636353	-41.701050	-273.890900	456.025024	-84.374710	-302.973053	300.923431	-11.245363	-311.684113	68.630051	-114.576584	-357.466705	57.218731	-171.361618	-177.962296	49.954334	-132.053177	-265.643433	568.137451	-469.056030	-271.888885	473.525177	-424.208099	-310.166321	255.196182	-460.409424	-324.040741	62.110340	-379.527863	-364.483185	51.613117	-325.438446	-184.937775	40.641518	-380.047729
